# xmcd CD database file
#
# Track frame offsets:
#	150
#	13733
#	27500
#	40365
#	51323
#	65925
#	79453
#	93683
#	110235
#	119910
#	131973
#	153205
#	163638
#	178625
#	190048
#	201393
#	215060
#	227050
#	242548
#	252743
#	265853
#	278933
#	294723
#	308233
#
# Disc length: 4304 seconds
#
# Revision: 0
# Processed by: cddbd v1.4PL0 Copyright (c) Steve Scherf et al.
# Submitted via: CDex 1.40Release
#
DISCID=8810ce18
DTITLE=Tião Carreiro e Pardinho - Dose Dupla - Volume 11
DYEAR=2003
DGENRE=Country
TTITLE0=Pagode em Brasília
TTITLE1=Bandeira branca
TTITLE2=Rei sem coroa
TTITLE3=Falou e disse
TTITLE4=Chora viola
TTITLE5=Pagode na praça
TTITLE6=Rei do pagode
TTITLE7=Em tempo de avanço
TTITLE8=Começo do fim
TTITLE9=Na barba do leão
TTITLE10=Pagode do ala
TTITLE11=Linha de frente
TTITLE12=Nove e nove
TTITLE13=Empreitada perigosa
TTITLE14=A ferro e fogo
TTITLE15=Tudo serve
TTITLE16=Sete flechas
TTITLE17=Uma coisa puxa outra
TTITLE18=Não é mole não
TTITLE19=Bi-campeão mundial
TTITLE20=Adeus São Paulo
TTITLE21=Ponta de espada
TTITLE22=É isso que o povo quer
TTITLE23=Tudo certo
EXTD=YEAR: 2003 ID3G: 2
EXTT0=
EXTT1=
EXTT2=
EXTT3=
EXTT4=
EXTT5=
EXTT6=
EXTT7=
EXTT8=
EXTT9=
EXTT10=
EXTT11=
EXTT12=
EXTT13=
EXTT14=
EXTT15=
EXTT16=
EXTT17=
EXTT18=
EXTT19=
EXTT20=
EXTT21=
EXTT22=
EXTT23=
PLAYORDER=
